<svg xmlns="http://www.w3.org/2000/svg" xmlns:xlink="http://www.w3.org/1999/xlink" viewBox="0,0,256,256" width="48px" height="48px" fill-rule="nonzero"><g fill="#ffffff" fill-rule="nonzero" stroke="none" stroke-width="1" stroke-linecap="butt" stroke-linejoin="miter" stroke-miterlimit="10" stroke-dasharray="" stroke-dashoffset="0" font-family="none" font-weight="none" font-size="none" text-anchor="none" style="mix-blend-mode: normal"><g transform="scale(10.66667,10.66667)"><path d="M5.56836,3c-1.255,0 -2.18263,1.12856 -2.14063,2.35156c0.04,1.176 -0.01177,2.69941 -0.38477,3.94141c-0.375,1.246 -1.00897,1.60603 -2.04297,1.70703v2c1.034,0.101 1.66797,0.46103 2.04297,1.70703c0.373,1.242 0.42477,2.76641 0.38477,3.94141c-0.042,1.223 0.88563,2.35156 2.14063,2.35156h12.86328c1.255,0 2.18458,-1.12856 2.14258,-2.35156c-0.04,-1.176 0.01177,-2.69941 0.38477,-3.94141c0.375,-1.246 1.00702,-1.60603 2.04102,-1.70703v-2c-1.034,-0.101 -1.66506,-0.46103 -2.03906,-1.70703c-0.373,-1.242 -0.42672,-2.76641 -0.38672,-3.94141c0.041,-1.223 -0.88658,-2.35156 -2.14258,-2.35156zM5.56836,5h12.86328c0.005,0 0.01978,-0.00075 0.05078,0.03125c0.046,0.047 0.09675,0.14291 0.09375,0.25391c-0.061,1.803 0.09575,3.34598 0.46875,4.58398c0.274,0.91 0.69639,1.61981 1.27539,2.13281c-0.58,0.513 -1.00139,1.21986 -1.27539,2.13086c-0.372,1.238 -0.52975,2.77999 -0.46875,4.58399c0.004,0.111 -0.04775,0.20591 -0.09375,0.25391c-0.031,0.03 -0.04478,0.0293 -0.05078,0.0293h-12.86328c-0.005,0 -0.01783,0.00075 -0.04883,-0.03125c-0.046,-0.047 -0.09675,-0.14191 -0.09375,-0.25391c0.061,-1.804 -0.0987,-3.34598 -0.4707,-4.58398c-0.273,-0.91 -0.69444,-1.61786 -1.27344,-2.13086c0.58,-0.513 1.00239,-1.22181 1.27539,-2.13281c0.372,-1.238 0.52975,-2.77998 0.46875,-4.58398c-0.004,-0.11 0.04875,-0.20495 0.09375,-0.25195c0.031,-0.032 0.04383,-0.03125 0.04883,-0.03125zM8,7.0332v9.9668h4.1543c1.071,0 1.96575,-0.26839 2.59375,-0.77539c0.643,-0.523 0.98438,-1.27859 0.98438,-2.18359c0,-1.083 -0.59864,-1.95719 -1.55664,-2.36719c0.649,-0.434 1.08789,-1.19014 1.08789,-1.99414c0,-0.79 -0.30577,-1.46045 -0.88477,-1.93945c-0.559,-0.463 -1.33714,-0.70703 -2.24414,-0.70703zM10.12695,8.95117h1.65039c0.902,0 1.35938,0.34248 1.35938,1.02148c0,0.926 -0.90792,1.12109 -1.66992,1.12109h-1.33984zM10.125,12.83984h1.63867c1.623,0 1.81055,0.68808 1.81055,1.20508c0,0.303 0.00039,1.22266 -1.72461,1.22266h-1.72461z"></path></g></g></svg>